<?xml version="1.0" encoding="utf-8"?>
<!-- Generator: Adobe Illustrator 27.6.1, SVG Export Plug-In . SVG Version: 6.00 Build 0)  -->
<svg version="1.1" id="Layer_1" xmlns="http://www.w3.org/2000/svg" xmlns:xlink="http://www.w3.org/1999/xlink" x="0px" y="0px"
	 viewBox="0 0 631.18 438.36" style="enable-background:new 0 0 631.18 438.36;" xml:space="preserve">
<style type="text/css">
	.st0{fill:#3B9FD9;}
	.st1{fill:#2C2976;}
</style>
<g>
	<g>
		<g>
			<path class="st0" d="M371.9,173.48l-2.37,3.4l-13.9,19.61l-4.92,6.98c-9.29-9.29-21.98-14.09-35.15-13.3
				c-13.96,0.79-26.59,7.83-34.67,19.19l-19.61,27.69l-5.04,7.04l-13.84,19.43l-2.37,3.34L215.5,301.4L114.72,154.54h44.2
				l57.13,83.24l35.15-49.48c14.51-20.46,37.16-33.03,62.17-34.49C334.99,152.53,355.81,159.64,371.9,173.48z"/>
		</g>
	</g>
	<g>
		<g>
			<path class="st1" d="M516.46,287.5h-44.14l-58.16-84.82l-35.21,49.48c-14.51,20.46-37.16,33.03-62.11,34.55
				c-21.61,1.21-42.5-5.89-58.59-19.85l2.37-3.34l13.84-19.43l5.04-7.04c9.29,9.23,21.98,14.02,35.15,13.3
				c13.9-0.85,26.53-7.89,34.61-19.25l19.67-27.62l4.92-6.98l13.9-19.61l2.37-3.4l24.53-34.42L516.46,287.5z"/>
		</g>
	</g>
</g>
</svg>
