<?xml version="1.0" encoding="utf-8"?>
<!-- Generator: Adobe Illustrator 27.6.1, SVG Export Plug-In . SVG Version: 6.00 Build 0)  -->
<svg version="1.1" id="Layer_1" xmlns="http://www.w3.org/2000/svg" xmlns:xlink="http://www.w3.org/1999/xlink" x="0px" y="0px"
	 viewBox="0 0 1500 438.36" style="enable-background:new 0 0 1500 438.36;" xml:space="preserve">
<style type="text/css">
	.st0{fill:#3B9FD9;}
	.st1{fill:#2C2976;}
</style>
<g>
	<path class="st0" d="M650.4,286.79h-36.6l-38.74-149.83h27.88l30.22,124.08h0.43l31.28-124.08h34.48l31.07,124.08h0.43
		l30.22-124.08h26.81L750,286.79h-36.6l-31.29-124.72h-0.43L650.4,286.79z"/>
	<path class="st0" d="M840.24,286.79h-27.03V136.96h27.03V286.79z"/>
	<path class="st1" d="M903.66,286.79h-25.54V136.96h41.29l42.99,116.42h0.43l42.35-116.42h40.65v149.83h-25.54V163.36h-0.43
		l-45.12,123.44h-25.75l-44.91-123.44h-0.43V286.79z"/>
	<path class="st1" d="M1110.74,221.25v42.35h78.75v23.2h-105.78V136.96h103.01v22.99h-75.98v38.95h67.89v22.35H1110.74z"/>
	<path class="st1" d="M1346.87,182.62c3.9,9.44,5.85,19.26,5.85,29.47c0,10.08-1.92,19.8-5.75,29.16
		c-3.83,9.36-9.22,17.53-16.17,24.48c-7.52,7.52-16.35,12.91-26.49,16.17c-10.14,3.26-21.81,4.9-35.01,4.9h-51.51V136.96h51.51
		c13.33,0,25.01,1.6,35.01,4.79c10,3.19,18.91,8.69,26.71,16.49C1337.68,165.05,1342.97,173.18,1346.87,182.62z M1321.23,232.95
		c2.69-6.81,4.05-13.9,4.05-21.28s-1.32-14.4-3.94-21.07c-2.62-6.67-6.28-12.41-10.96-17.24c-5.25-5.25-11.31-8.83-18.19-10.75
		c-6.89-1.91-14.87-2.87-23.95-2.87h-23.41v104.07h23.62c9.37,0,17.35-0.96,23.95-2.87c6.6-1.92,12.45-5.43,17.56-10.54
		C1314.77,245.58,1318.53,239.76,1321.23,232.95z"/>
</g>
<g>
	<g>
		<g>
			<path class="st0" d="M404.46,173.48l-2.37,3.4l-13.9,19.61l-4.92,6.98c-9.29-9.29-21.98-14.09-35.15-13.3
				c-13.96,0.79-26.59,7.83-34.67,19.19l-19.61,27.69l-5.04,7.04l-13.84,19.43l-2.37,3.34l-24.53,34.55L147.27,154.54h44.2
				l57.13,83.24l35.15-49.48c14.51-20.46,37.16-33.03,62.17-34.49C367.54,152.53,388.37,159.64,404.46,173.48z"/>
		</g>
	</g>
	<g>
		<g>
			<path class="st1" d="M549.01,287.5h-44.14l-58.16-84.82l-35.21,49.48c-14.51,20.46-37.16,33.03-62.11,34.55
				c-21.61,1.21-42.5-5.89-58.59-19.85l2.37-3.34l13.84-19.43l5.04-7.04c9.29,9.23,21.98,14.02,35.15,13.3
				c13.9-0.85,26.53-7.89,34.61-19.25l19.67-27.62l4.92-6.98l13.9-19.61l2.37-3.4l24.53-34.42L549.01,287.5z"/>
		</g>
	</g>
</g>
</svg>
